<svg width="47" height="43" viewBox="0 0 47 43" fill="none" xmlns="http://www.w3.org/2000/svg">
<g opacity="0.7">
<mask id="path-1-inside-1_95_229" fill="white">
<path fill-rule="evenodd" clip-rule="evenodd" d="M14.4516 10.5163C14.3388 11.0387 14.4053 11.1608 15.5581 12.5479C17.0494 14.3419 18.7467 15.652 22.9247 18.2338C24.5316 19.2266 25.8555 20.114 25.8669 20.206C25.8785 20.2979 25.6904 20.5341 25.4491 20.7306C24.6085 21.4157 21.6282 24.819 19.9966 26.957C15.2169 33.2199 4.15731 38.8396 0.68216 40.5037C0.101042 40.782 -0.143054 41.4821 0.144544 42.0587V42.0587C0.409561 42.59 1.03713 42.8243 1.57748 42.5782C4.86829 41.08 15.8668 35.637 23.1369 26.808C24.3439 25.3423 27.3802 22.0303 27.9215 21.5891C27.9806 21.541 28.5511 21.8574 29.1889 22.2922C33.3572 25.1342 42.0528 30.8922 42.8101 31.3118C43.412 31.6454 44.0509 31.4451 44.4538 30.7962C44.6207 30.5277 44.899 29.0495 45.0727 27.5112C45.542 23.3542 46.1987 9.07873 46.0587 6.07649C45.8001 0.525981 45.7736 0.371094 45.0463 0.145414C44.757 0.0557751 43.5308 0.235908 42.1347 0.573222C40.5189 0.963692 39.5546 1.0927 39.2124 0.964049C38.6448 0.750646 38.261 0.857335 29.5242 3.65633C18.7324 7.11368 14.7996 8.90344 14.4516 10.5163ZM37.306 3.74094C35.1662 4.19877 23.1553 8.22198 19.9133 9.56684C17.3045 10.649 17.1263 10.78 17.5547 11.3006C18.3096 12.2177 20.9174 14.1065 25.1913 16.8315C27.6993 18.4305 31.3714 20.8428 33.3517 22.1921C38.0573 25.3983 37.9904 25.3558 38.1365 25.2367C38.2057 25.1804 38.2445 23.6672 38.2224 21.8742C38.2006 20.0812 38.1863 17.2642 38.1908 15.6142C38.2032 10.9975 38.1394 8.43004 37.9503 5.93002C37.7784 3.65647 37.7737 3.64089 37.306 3.74094ZM43.5467 3.47521C43.477 2.76153 43.4751 2.76016 42.7647 2.91317C41.9856 3.08089 41.9124 3.14825 42.2565 3.381C42.4111 3.48557 42.7256 3.71392 42.9556 3.88871C43.4721 4.28122 43.6158 4.18061 43.5467 3.47521ZM43.5115 7.41326C43.4251 7.30457 42.721 6.73506 41.9468 6.14762C41.1727 5.56019 40.4875 5.12203 40.4238 5.17397C40.3602 5.22579 40.3573 5.80355 40.4173 6.45817C40.513 7.5027 40.5853 7.68159 41.0078 7.923C41.2723 8.07426 41.9188 8.64212 42.4444 9.18481C42.9699 9.72749 43.4498 10.1309 43.5108 10.0812C43.6857 9.93867 43.6863 7.6331 43.5115 7.41326ZM43.4774 14.625C43.5276 14.273 43.5419 13.8409 43.5093 13.6649C43.4753 13.4807 42.827 12.7952 41.9855 12.0532C40.5259 10.7663 40.521 10.7638 40.5774 11.3393C40.6512 12.0935 41.3073 13.4028 41.8622 13.9032C42.1036 14.1211 42.5455 14.5167 42.8437 14.7823L43.3861 15.265L43.4774 14.625ZM43.257 19.0899C43.301 18.523 43.2648 18.4708 42.0891 17.401C41.4217 16.7939 40.8164 16.2915 40.7438 16.2846C40.6714 16.2776 40.5992 16.4892 40.5837 16.7547C40.5596 17.1685 40.7092 17.3961 41.6353 18.3535C42.9999 19.764 43.198 19.854 43.257 19.0899ZM42.6254 22.6556C42.3636 22.5275 41.8614 22.0698 41.5097 21.6383C40.813 20.7834 40.4836 20.7816 40.7205 21.6342C40.8659 22.1572 42.5143 24.2399 42.8048 24.2675C42.8849 24.275 42.9845 23.9678 43.0261 23.5847C43.0932 22.9675 43.0475 22.8616 42.6254 22.6556ZM42.6508 28.0056C42.6603 27.7674 42.3517 27.3027 41.7035 26.58C41.1747 25.9904 40.6929 25.5479 40.6329 25.5967C40.5731 25.6454 40.5036 25.9517 40.4783 26.2771C40.434 26.852 40.4575 26.8859 41.2965 27.466L41.4741 27.5889C42.2789 28.146 42.5271 28.3178 42.6074 28.2591C42.6431 28.2329 42.6455 28.161 42.649 28.0569L42.6508 28.0056Z"/>
</mask>
<path fill-rule="evenodd" clip-rule="evenodd" d="M14.4516 10.5163C14.3388 11.0387 14.4053 11.1608 15.5581 12.5479C17.0494 14.3419 18.7467 15.652 22.9247 18.2338C24.5316 19.2266 25.8555 20.114 25.8669 20.206C25.8785 20.2979 25.6904 20.5341 25.4491 20.7306C24.6085 21.4157 21.6282 24.819 19.9966 26.957C15.2169 33.2199 4.15731 38.8396 0.68216 40.5037C0.101042 40.782 -0.143054 41.4821 0.144544 42.0587V42.0587C0.409561 42.59 1.03713 42.8243 1.57748 42.5782C4.86829 41.08 15.8668 35.637 23.1369 26.808C24.3439 25.3423 27.3802 22.0303 27.9215 21.5891C27.9806 21.541 28.5511 21.8574 29.1889 22.2922C33.3572 25.1342 42.0528 30.8922 42.8101 31.3118C43.412 31.6454 44.0509 31.4451 44.4538 30.7962C44.6207 30.5277 44.899 29.0495 45.0727 27.5112C45.542 23.3542 46.1987 9.07873 46.0587 6.07649C45.8001 0.525981 45.7736 0.371094 45.0463 0.145414C44.757 0.0557751 43.5308 0.235908 42.1347 0.573222C40.5189 0.963692 39.5546 1.0927 39.2124 0.964049C38.6448 0.750646 38.261 0.857335 29.5242 3.65633C18.7324 7.11368 14.7996 8.90344 14.4516 10.5163ZM37.306 3.74094C35.1662 4.19877 23.1553 8.22198 19.9133 9.56684C17.3045 10.649 17.1263 10.78 17.5547 11.3006C18.3096 12.2177 20.9174 14.1065 25.1913 16.8315C27.6993 18.4305 31.3714 20.8428 33.3517 22.1921C38.0573 25.3983 37.9904 25.3558 38.1365 25.2367C38.2057 25.1804 38.2445 23.6672 38.2224 21.8742C38.2006 20.0812 38.1863 17.2642 38.1908 15.6142C38.2032 10.9975 38.1394 8.43004 37.9503 5.93002C37.7784 3.65647 37.7737 3.64089 37.306 3.74094ZM43.5467 3.47521C43.477 2.76153 43.4751 2.76016 42.7647 2.91317C41.9856 3.08089 41.9124 3.14825 42.2565 3.381C42.4111 3.48557 42.7256 3.71392 42.9556 3.88871C43.4721 4.28122 43.6158 4.18061 43.5467 3.47521ZM43.5115 7.41326C43.4251 7.30457 42.721 6.73506 41.9468 6.14762C41.1727 5.56019 40.4875 5.12203 40.4238 5.17397C40.3602 5.22579 40.3573 5.80355 40.4173 6.45817C40.513 7.5027 40.5853 7.68159 41.0078 7.923C41.2723 8.07426 41.9188 8.64212 42.4444 9.18481C42.9699 9.72749 43.4498 10.1309 43.5108 10.0812C43.6857 9.93867 43.6863 7.6331 43.5115 7.41326ZM43.4774 14.625C43.5276 14.273 43.5419 13.8409 43.5093 13.6649C43.4753 13.4807 42.827 12.7952 41.9855 12.0532C40.5259 10.7663 40.521 10.7638 40.5774 11.3393C40.6512 12.0935 41.3073 13.4028 41.8622 13.9032C42.1036 14.1211 42.5455 14.5167 42.8437 14.7823L43.3861 15.265L43.4774 14.625ZM43.257 19.0899C43.301 18.523 43.2648 18.4708 42.0891 17.401C41.4217 16.7939 40.8164 16.2915 40.7438 16.2846C40.6714 16.2776 40.5992 16.4892 40.5837 16.7547C40.5596 17.1685 40.7092 17.3961 41.6353 18.3535C42.9999 19.764 43.198 19.854 43.257 19.0899ZM42.6254 22.6556C42.3636 22.5275 41.8614 22.0698 41.5097 21.6383C40.813 20.7834 40.4836 20.7816 40.7205 21.6342C40.8659 22.1572 42.5143 24.2399 42.8048 24.2675C42.8849 24.275 42.9845 23.9678 43.0261 23.5847C43.0932 22.9675 43.0475 22.8616 42.6254 22.6556ZM42.6508 28.0056C42.6603 27.7674 42.3517 27.3027 41.7035 26.58C41.1747 25.9904 40.6929 25.5479 40.6329 25.5967C40.5731 25.6454 40.5036 25.9517 40.4783 26.2771C40.434 26.852 40.4575 26.8859 41.2965 27.466L41.4741 27.5889C42.2789 28.146 42.5271 28.3178 42.6074 28.2591C42.6431 28.2329 42.6455 28.161 42.649 28.0569L42.6508 28.0056Z" fill="white"/>
<path d="M42.1512 27.9853C42.1504 28.0053 42.1498 28.0242 42.1493 28.0404L43.1487 28.0735C43.1493 28.057 43.1498 28.0417 43.1504 28.026L42.1512 27.9853ZM41.7587 27.1778C41.7023 27.1387 41.643 27.0977 41.5809 27.0548L41.0121 27.8773C41.0741 27.9201 41.1332 27.961 41.1896 28L41.7587 27.1778ZM14.4516 10.5163L15.4291 10.7273L15.4291 10.7272L14.4516 10.5163ZM15.5581 12.5479L14.789 13.187L14.7891 13.1871L15.5581 12.5479ZM22.9247 18.2338L22.399 19.0845L22.3991 19.0846L22.9247 18.2338ZM25.8669 20.206L24.8745 20.3289L24.8747 20.3306L25.8669 20.206ZM19.9966 26.957L19.2017 26.3503L19.2016 26.3503L19.9966 26.957ZM23.1369 26.808L22.3649 26.1723L22.3649 26.1723L23.1369 26.808ZM29.1889 22.2922L29.7523 21.466L29.7522 21.466L29.1889 22.2922ZM42.8101 31.3118L43.2948 30.4372L43.2948 30.4371L42.8101 31.3118ZM44.4538 30.7962L43.6045 30.2682L43.6042 30.2688L44.4538 30.7962ZM45.0727 27.5112L44.079 27.399L44.079 27.399L45.0727 27.5112ZM46.0587 6.07649L45.0598 6.12304L45.0598 6.12305L46.0587 6.07649ZM45.0463 0.145414L45.3426 -0.809667L45.3422 -0.809785L45.0463 0.145414ZM42.1347 0.573222L41.8999 -0.398808L41.8998 -0.3988L42.1347 0.573222ZM39.2124 0.964049L38.8605 1.90007L38.8605 1.90009L39.2124 0.964049ZM29.5242 3.65633L29.8293 4.60866L29.8293 4.60865L29.5242 3.65633ZM19.9133 9.56684L20.2964 10.4905L20.2964 10.4905L19.9133 9.56684ZM37.306 3.74094L37.0968 2.76307L37.0968 2.76307L37.306 3.74094ZM37.9503 5.93002L38.9475 5.8546L38.9475 5.85459L37.9503 5.93002ZM38.1908 15.6142L39.1908 15.617L39.1908 15.6169L38.1908 15.6142ZM38.2224 21.8742L37.2225 21.8864L37.2225 21.8865L38.2224 21.8742ZM33.3517 22.1921L32.7886 23.0185L32.7886 23.0185L33.3517 22.1921ZM25.1913 16.8315L24.6537 17.6747L24.6537 17.6747L25.1913 16.8315ZM17.5547 11.3006L16.7826 11.936L16.7827 11.9362L17.5547 11.3006ZM42.7647 2.91317L42.9751 3.89077L42.9752 3.89075L42.7647 2.91317ZM43.5467 3.47521L42.5515 3.57254L42.5515 3.57271L43.5467 3.47521ZM42.9556 3.88871L43.5607 3.09254L43.5606 3.09245L42.9556 3.88871ZM42.2565 3.381L41.6961 4.20927L41.6963 4.20938L42.2565 3.381ZM43.5115 7.41326L42.7287 8.03552L42.7288 8.03563L43.5115 7.41326ZM41.0078 7.923L41.5041 7.0549L41.5039 7.05476L41.0078 7.923ZM40.4173 6.45817L39.4215 6.54945L39.4215 6.54946L40.4173 6.45817ZM43.5093 13.6649L44.4927 13.483L44.4927 13.4829L43.5093 13.6649ZM43.4774 14.625L42.4874 14.4837L42.4874 14.4839L43.4774 14.625ZM43.3861 15.265L42.7214 16.012L44.1131 17.2505L44.3761 15.4061L43.3861 15.265ZM42.8437 14.7823L42.1787 15.5291L42.1789 15.5293L42.8437 14.7823ZM41.8622 13.9032L42.5322 13.1608L42.5319 13.1605L41.8622 13.9032ZM40.5774 11.3393L41.5727 11.2419L41.5726 11.2417L40.5774 11.3393ZM41.9855 12.0532L41.3241 12.8033L41.3241 12.8033L41.9855 12.0532ZM42.0891 17.401L42.7621 16.6614L42.762 16.6613L42.0891 17.401ZM43.257 19.0899L42.26 19.0126L42.26 19.0129L43.257 19.0899ZM41.6353 18.3535L40.9166 19.0488L40.9166 19.0488L41.6353 18.3535ZM40.5837 16.7547L41.582 16.8129L41.582 16.8127L40.5837 16.7547ZM40.7438 16.2846L40.6473 17.28L40.6491 17.2801L40.7438 16.2846ZM42.6254 22.6556L42.1862 23.5539L42.1867 23.5542L42.6254 22.6556ZM43.0261 23.5847L44.0203 23.6928L43.0261 23.5847ZM42.8048 24.2675L42.7101 25.263L42.7117 25.2632L42.8048 24.2675ZM40.7205 21.6342L39.757 21.9019L39.757 21.9021L40.7205 21.6342ZM41.7035 26.58L40.959 27.2477L40.9591 27.2477L41.7035 26.58ZM42.6508 28.0056L41.6516 27.9661L41.6515 27.9699L42.6508 28.0056ZM41.2965 27.466L41.8655 26.6437L41.8652 26.6435L41.2965 27.466ZM40.4783 26.2771L39.4813 26.1996L39.4812 26.2003L40.4783 26.2771ZM42.6074 28.2591L42.0172 27.4518L42.0172 27.4518L42.6074 28.2591ZM42.649 28.0569L41.6496 28.0212L41.6495 28.0237L42.649 28.0569ZM41.4741 27.5889L42.0433 26.7667L42.0431 26.7666L41.4741 27.5889ZM1.57748 42.5782L1.99184 43.4884L1.57748 42.5782ZM0.68216 40.5037L0.250257 39.6018L0.68216 40.5037ZM13.4741 10.3053C13.4429 10.4497 13.3973 10.6763 13.4179 10.9375C13.44 11.2191 13.5305 11.463 13.6521 11.6862C13.8573 12.0629 14.2436 12.5308 14.789 13.187L16.3271 11.9087C16.0377 11.5604 15.8278 11.3051 15.673 11.1057C15.5144 10.9013 15.442 10.7911 15.4085 10.7296C15.3834 10.6835 15.4063 10.7122 15.4117 10.7806C15.4155 10.8287 15.4039 10.8441 15.4291 10.7273L13.4741 10.3053ZM14.7891 13.1871C16.3907 15.1139 18.2075 16.4944 22.399 19.0845L23.4504 17.3831C19.2858 14.8097 17.708 13.57 16.3271 11.9086L14.7891 13.1871ZM22.3991 19.0846C23.1951 19.5763 23.9169 20.0395 24.4373 20.3884C24.6992 20.5639 24.901 20.7044 25.0334 20.8024C25.1019 20.8531 25.1369 20.8815 25.1485 20.8915C25.1566 20.8985 25.1379 20.8833 25.1094 20.852C25.0959 20.8371 25.0623 20.7992 25.0256 20.7432C25.0038 20.7099 24.9028 20.5573 24.8745 20.3289L26.8593 20.0831C26.8303 19.849 26.7261 19.6891 26.6984 19.647C26.656 19.5822 26.6141 19.5339 26.5899 19.5072C26.54 19.4524 26.4901 19.4076 26.4577 19.3796C26.3885 19.3196 26.3056 19.2558 26.2233 19.1949C26.054 19.0696 25.8223 18.909 25.5509 18.7271C25.0048 18.361 24.2612 17.8841 23.4503 17.3831L22.3991 19.0846ZM24.8747 20.3306C24.8532 20.1597 24.8844 20.0285 24.9013 19.9697C24.9204 19.9038 24.9425 19.8584 24.9527 19.8386C24.9729 19.7998 24.9846 19.7884 24.9706 19.8061C24.9452 19.838 24.8902 19.8961 24.8174 19.9555L26.0809 21.5058C26.2493 21.3686 26.409 21.2103 26.5351 21.052C26.5967 20.9746 26.6684 20.8747 26.7281 20.7596C26.7633 20.6918 26.9023 20.4253 26.8591 20.0814L24.8747 20.3306ZM24.8174 19.9555C24.3185 20.362 23.3049 21.4552 22.2672 22.6402C21.2041 23.8542 20.0355 25.2576 19.2017 26.3503L20.7915 27.5637C21.5893 26.5184 22.7267 25.1512 23.7718 23.9578C24.8423 22.7354 25.7392 21.7843 26.0809 21.5058L24.8174 19.9555ZM1.99184 43.4884C5.30922 41.978 16.4862 36.458 23.9088 27.4437L22.3649 26.1723C15.2475 34.816 4.42735 40.182 1.16313 41.6681L1.99184 43.4884ZM23.9088 27.4437C24.495 26.7319 25.5414 25.5532 26.5159 24.4901C27.0015 23.9605 27.464 23.4653 27.8366 23.0771C28.2297 22.6677 28.4753 22.4279 28.5533 22.3643L27.2898 20.814C27.0971 20.971 26.7601 21.3106 26.3939 21.692C26.0073 22.0947 25.5338 22.6019 25.0417 23.1386C24.061 24.2083 22.9857 25.4184 22.3649 26.1723L23.9088 27.4437ZM28.5533 22.3643C28.3084 22.5639 28.0524 22.5814 27.9676 22.5839C27.8624 22.587 27.7839 22.5713 27.7542 22.5648C27.6912 22.5511 27.6574 22.5353 27.6724 22.5416C27.6925 22.5499 27.751 22.5774 27.8531 22.634C28.0493 22.7429 28.3248 22.9134 28.6257 23.1185L29.7522 21.466C29.4152 21.2363 29.0865 21.0311 28.8233 20.8851C28.6956 20.8143 28.5605 20.7446 28.4371 20.6935C28.3804 20.67 28.2873 20.634 28.1793 20.6105C28.1271 20.5992 28.0297 20.5812 27.9094 20.5847C27.8094 20.5877 27.542 20.6084 27.2898 20.814L28.5533 22.3643ZM28.6256 23.1185C30.7151 24.5431 33.9353 26.6959 36.7265 28.5442C39.4876 30.3725 41.9015 31.9516 42.3254 32.1865L43.2948 30.4371C42.9614 30.2524 40.6488 28.7427 37.8307 26.8766C35.0427 25.0304 31.831 22.8833 29.7523 21.466L28.6256 23.1185ZM42.3253 32.1865C42.8429 32.4733 43.4354 32.5556 44.0059 32.3766C44.5645 32.2014 45.0027 31.808 45.3034 31.3236L43.6042 30.2688C43.502 30.4333 43.4193 30.4645 43.4073 30.4683C43.3998 30.4707 43.3933 30.4715 43.3827 30.4703C43.3711 30.4689 43.3418 30.4632 43.2948 30.4372L42.3253 32.1865ZM45.303 31.3242C45.4371 31.1086 45.517 30.8189 45.5641 30.6384C45.6243 30.4077 45.685 30.1252 45.7434 29.815C45.8607 29.1923 45.9771 28.4136 46.0664 27.6234L44.079 27.399C43.9945 28.1471 43.885 28.8766 43.778 29.4448C43.7242 29.7299 43.6732 29.9635 43.6288 30.1335C43.5714 30.3538 43.5539 30.3496 43.6045 30.2682L45.303 31.3242ZM46.0664 27.6234C46.5395 23.4324 47.2008 9.10115 47.0577 6.02994L45.0598 6.12305C45.1966 9.05631 44.5444 23.2759 44.079 27.399L46.0664 27.6234ZM47.0577 6.02995C46.9303 3.29598 46.8572 1.78439 46.714 0.94586C46.6436 0.53321 46.531 0.0983879 46.2489 -0.246432C45.934 -0.631344 45.5295 -0.751668 45.3426 -0.809667L44.7499 1.1005C44.9267 1.15534 44.7983 1.139 44.701 1.02006C44.6365 0.941206 44.6831 0.934328 44.7425 1.28242C44.8591 1.96539 44.9286 3.3065 45.0598 6.12304L47.0577 6.02995ZM45.3422 -0.809785C45.079 -0.891333 44.782 -0.880704 44.6119 -0.871546C44.3926 -0.859744 44.1357 -0.830643 43.8602 -0.790167C43.3064 -0.708805 42.6203 -0.572884 41.8999 -0.398808L42.3696 1.54525C43.0452 1.38201 43.6702 1.25921 44.1509 1.18859C44.3926 1.15307 44.5837 1.13286 44.7194 1.12556C44.9042 1.11561 44.8688 1.13734 44.7503 1.10061L45.3422 -0.809785ZM41.8998 -0.3988C41.1058 -0.206919 40.4992 -0.086157 40.0634 -0.0278675C39.8451 0.00133259 39.6893 0.0121007 39.5855 0.0121666C39.4628 0.0122445 39.4812 -0.00322723 39.5643 0.0280084L38.8605 1.90009C39.1147 1.99565 39.382 2.0123 39.5868 2.01217C39.8105 2.01202 40.061 1.99026 40.3285 1.95448C40.8644 1.88281 41.5478 1.74383 42.3696 1.54524L41.8998 -0.3988ZM39.5644 0.0280222C39.2976 -0.0722819 39.0149 -0.13409 38.5942 -0.0945283C38.2455 -0.0617372 37.7963 0.0413326 37.164 0.217051C35.8809 0.573606 33.5757 1.30829 29.2191 2.70401L29.8293 4.60865C34.2094 3.20538 36.4645 2.48722 37.6995 2.14403C38.3262 1.96988 38.6255 1.91135 38.7814 1.89669C38.8653 1.8888 38.8435 1.89368 38.8605 1.90007L39.5644 0.0280222ZM29.2191 2.70401C23.8226 4.43288 20.0915 5.75993 17.6572 6.86783C16.4427 7.42057 15.5024 7.94014 14.8282 8.45604C14.1695 8.96011 13.6352 9.55874 13.4741 10.3054L15.4291 10.7272C15.442 10.6674 15.5298 10.4375 16.0436 10.0444C16.542 9.66301 17.3245 9.21664 18.4857 8.68817C20.8027 7.63364 24.434 6.33713 29.8293 4.60866L29.2191 2.70401ZM20.2964 10.4905C21.88 9.83364 25.6603 8.50221 29.3406 7.26947C33.0414 6.02982 36.5141 4.933 37.5152 4.71881L37.0968 2.76307C35.958 3.00671 32.3553 4.15042 28.7053 5.37304C25.0347 6.60257 21.1886 7.95518 19.5301 8.64316L20.2964 10.4905ZM37.5152 4.71882C37.5847 4.70394 37.5821 4.70581 37.5644 4.70765C37.5437 4.70981 37.4216 4.72232 37.2642 4.66995C36.8499 4.53215 36.7644 4.17581 36.7798 4.2278C36.7907 4.26486 36.8155 4.39036 36.8478 4.71417C36.8783 5.01901 36.9098 5.43228 36.9532 6.00545L38.9475 5.85459C38.9049 5.29099 38.8713 4.84972 38.8379 4.51534C38.8064 4.19991 38.7686 3.90148 38.6983 3.66296C38.6325 3.43937 38.4475 2.9558 37.8954 2.77217C37.669 2.69688 37.4685 2.70683 37.3573 2.71841C37.2492 2.72966 37.1442 2.75293 37.0968 2.76307L37.5152 4.71882ZM36.9532 6.00544C37.1393 8.46635 37.2031 11.0031 37.1908 15.6116L39.1908 15.6169C39.2032 10.9919 39.1395 8.39374 38.9475 5.8546L36.9532 6.00544ZM37.1908 15.6115C37.1863 17.2668 37.2006 20.0889 37.2225 21.8864L39.2223 21.8621C39.2005 20.0736 39.1863 17.2615 39.1908 15.617L37.1908 15.6115ZM37.2225 21.8865C37.2334 22.774 37.2292 23.5875 37.214 24.1812C37.2063 24.48 37.1962 24.7122 37.1849 24.8667C37.179 24.9469 37.1741 24.9875 37.1723 24.9995C37.171 25.0084 37.1741 24.9829 37.1859 24.9407C37.1915 24.9206 37.206 24.8712 37.2343 24.8097C37.2516 24.772 37.3272 24.6063 37.5048 24.4616L38.7683 26.0119C38.9502 25.8636 39.0301 25.6916 39.0516 25.6448C39.0841 25.574 39.1027 25.5128 39.1124 25.478C39.1323 25.4066 39.1434 25.3411 39.1496 25.2997C39.1631 25.2112 39.1724 25.1103 39.1795 25.0127C39.1943 24.8116 39.2054 24.5429 39.2133 24.2323C39.2293 23.607 39.2335 22.7674 39.2223 21.8619L37.2225 21.8865ZM37.5048 24.4616C37.4177 24.5325 37.5812 24.3767 37.7991 24.3124C38.0569 24.2364 38.2579 24.2976 38.3062 24.3137C38.3565 24.3306 38.3104 24.3211 37.9908 24.1177C37.4183 23.7534 36.2781 22.9759 33.9148 21.3657L32.7886 23.0185C35.1309 24.6144 36.31 25.4188 36.9171 25.8051C37.1872 25.977 37.4459 26.1349 37.6718 26.2105C37.8078 26.256 38.0644 26.3194 38.3649 26.2307C38.6254 26.1539 38.8188 25.9707 38.7683 26.0119L37.5048 24.4616ZM33.9148 21.3657C31.9244 20.0095 28.2435 17.5916 25.7289 15.9883L24.6537 17.6747C27.1551 19.2695 30.8185 21.676 32.7886 23.0185L33.9148 21.3657ZM25.7289 15.9883C23.6002 14.631 21.8981 13.4894 20.64 12.5782C19.3501 11.6439 18.6115 11.0109 18.3268 10.6651L16.7827 11.9362C17.2529 12.5074 18.1956 13.2773 19.4668 14.198C20.7698 15.1417 22.5085 16.3069 24.6537 17.6747L25.7289 15.9883ZM18.3269 10.6652C18.2842 10.6133 18.2857 10.6093 18.299 10.6331C18.3136 10.6594 18.3708 10.7683 18.3753 10.9351C18.3864 11.3437 18.0987 11.5152 18.1874 11.45C18.2557 11.3998 18.4261 11.3016 18.8003 11.1303C19.1584 10.9663 19.6428 10.7617 20.2964 10.4905L19.5301 8.64315C18.8794 8.91309 18.3632 9.13069 17.9675 9.31189C17.588 9.4857 17.2514 9.65579 17.0027 9.83861C16.7743 10.0066 16.3594 10.376 16.376 10.9894C16.3833 11.2587 16.4764 11.4717 16.5532 11.609C16.6285 11.7438 16.7181 11.8577 16.7826 11.936L18.3269 10.6652ZM42.9752 3.89075C43.0667 3.87105 43.1336 3.8567 43.1896 3.84585C43.2468 3.83478 43.2712 3.83163 43.2774 3.83099C43.2867 3.83006 43.24 3.83634 43.1643 3.8255C43.0791 3.81332 42.9469 3.7779 42.8123 3.68121C42.6772 3.58408 42.6002 3.4686 42.5602 3.38806C42.5414 3.35002 42.5305 3.31959 42.5249 3.30206C42.522 3.29294 42.5201 3.28598 42.519 3.28166C42.5178 3.27733 42.5173 3.27496 42.5173 3.27496C42.5173 3.27494 42.5177 3.2767 42.5184 3.28054C42.5191 3.28437 42.52 3.28979 42.5211 3.29705C42.5234 3.31193 42.5261 3.33177 42.5293 3.35835C42.5359 3.41374 42.5425 3.48051 42.5515 3.57254L44.542 3.37788C44.527 3.22416 44.5087 3.02211 44.4727 2.85462C44.4406 2.70526 44.3464 2.3208 43.9796 2.05715C43.6166 1.79625 43.225 1.82608 43.0761 1.84116C42.9062 1.85835 42.7081 1.90242 42.5541 1.93559L42.9752 3.89075ZM42.5515 3.57271C42.5668 3.72882 42.5622 3.78281 42.5628 3.77798C42.5633 3.77332 42.5696 3.71428 42.6051 3.63038C42.6423 3.54228 42.726 3.39428 42.8975 3.2743C43.2797 3.00693 43.6424 3.15849 43.6539 3.16318C43.6937 3.17948 43.6724 3.17739 43.5607 3.09254L42.3506 4.68489C42.4972 4.79629 42.6874 4.92882 42.8974 5.01459C43.0789 5.08877 43.57 5.24469 44.0441 4.91304C44.4638 4.61939 44.5315 4.16364 44.5496 4.00723C44.5738 3.79741 44.5612 3.57431 44.542 3.37772L42.5515 3.57271ZM43.5606 3.09245C43.3228 2.91182 42.9923 2.67142 42.8166 2.55263L41.6963 4.20938C41.8299 4.29972 42.1283 4.51603 42.3507 4.68498L43.5606 3.09245ZM42.8168 2.55273C42.7866 2.53233 42.7804 2.52659 42.7869 2.532C42.7873 2.53235 42.8406 2.57495 42.8988 2.65751C42.9565 2.73952 43.0777 2.9454 43.0586 3.23974C43.0382 3.55324 42.8738 3.75987 42.7666 3.85848C42.671 3.94652 42.5872 3.98277 42.5791 3.98639C42.562 3.99404 42.5635 3.99182 42.5974 3.98159C42.6665 3.96071 42.7829 3.93216 42.9751 3.89077L42.5542 1.93557C42.357 1.97804 42.1721 2.02081 42.0191 2.06701C41.9193 2.09714 41.637 2.18002 41.4122 2.38692C41.2687 2.51898 41.0855 2.76007 41.0628 3.1101C41.0413 3.44096 41.1765 3.68541 41.2636 3.80909C41.4125 4.02051 41.623 4.15981 41.6961 4.20927L42.8168 2.55273ZM41.3423 6.94423C41.7227 7.23284 42.084 7.51566 42.3582 7.73748C42.4959 7.84885 42.6072 7.94126 42.6863 8.00949C42.7999 8.10744 42.7781 8.09767 42.7287 8.03552L44.2944 6.791C44.2018 6.67451 44.0596 6.55279 43.9926 6.49503C43.8912 6.40755 43.7619 6.30049 43.616 6.18246C43.323 5.9455 42.9451 5.64984 42.5513 5.35102L41.3423 6.94423ZM42.7288 8.03563C42.6283 7.90919 42.5942 7.79602 42.5925 7.79082C42.5841 7.76549 42.5836 7.75702 42.5872 7.77565C42.5942 7.81167 42.6041 7.8818 42.6136 7.98988C42.6321 8.20166 42.6424 8.48429 42.6423 8.77593C42.6422 9.06814 42.6317 9.34432 42.6134 9.544C42.604 9.64721 42.5946 9.70526 42.5901 9.72647C42.5875 9.73882 42.5916 9.71405 42.6087 9.66981C42.6175 9.64694 42.6362 9.60216 42.669 9.54748C42.6988 9.49776 42.7637 9.4 42.879 9.30601L44.1426 10.8563C44.3664 10.6739 44.453 10.4458 44.4744 10.3905C44.5106 10.2967 44.5325 10.2076 44.5463 10.1428C44.5746 10.0098 44.5926 9.86263 44.6051 9.72622C44.6307 9.44665 44.6422 9.10598 44.6423 8.77651C44.6424 8.44645 44.631 8.10257 44.606 7.81577C44.5936 7.67457 44.5763 7.52739 44.5506 7.3947C44.5378 7.32896 44.5195 7.24828 44.492 7.16495C44.4712 7.10176 44.4167 6.94482 44.2943 6.7909L42.7288 8.03563ZM42.879 9.30601C43.1392 9.09401 43.4168 9.07997 43.5456 9.08656C43.6783 9.09335 43.7753 9.12637 43.8136 9.14041C43.8596 9.15732 43.8915 9.17369 43.9049 9.18083C43.9201 9.1889 43.9286 9.19433 43.9292 9.1947C43.9296 9.19497 43.9177 9.18724 43.8914 9.1672C43.8664 9.14812 43.8343 9.12244 43.7952 9.08961C43.635 8.95499 43.409 8.74349 43.1627 8.48914L41.726 9.88047C42.0052 10.1688 42.2819 10.4303 42.5084 10.6206C42.6172 10.7121 42.7386 10.8077 42.8555 10.8821C42.9079 10.9154 43.0044 10.9739 43.1245 11.0179C43.1827 11.0393 43.2968 11.0764 43.4435 11.084C43.5863 11.0913 43.8748 11.0746 44.1426 10.8563L42.879 9.30601ZM43.1627 8.48914C42.8807 8.19793 42.5681 7.90176 42.2881 7.65578C42.0313 7.4302 41.7348 7.18676 41.5041 7.0549L40.5114 8.7911C40.5073 8.78877 40.5182 8.7949 40.5473 8.81545C40.5746 8.83469 40.61 8.86104 40.6536 8.89511C40.7408 8.96344 40.848 9.05281 40.9683 9.15845C41.209 9.3699 41.4825 9.629 41.726 9.88047L43.1627 8.48914ZM41.5039 7.05476C41.4267 7.01065 41.4307 7.00511 41.4545 7.02871C41.4911 7.06496 41.5121 7.10461 41.5175 7.11782C41.5178 7.11858 41.513 7.10679 41.5053 7.07583C41.4975 7.04463 41.4882 6.99969 41.4779 6.93548C41.4568 6.80334 41.4367 6.6245 41.4131 6.36688L39.4215 6.54946C39.466 7.03566 39.5143 7.49809 39.6626 7.86569C39.8638 8.36485 40.2034 8.61514 40.5116 8.79124L41.5039 7.05476ZM41.4131 6.36689C41.3853 6.06378 41.3732 5.78864 41.3742 5.59504C41.3747 5.49478 41.3786 5.43849 41.3809 5.4191C41.3823 5.40647 41.3803 5.43375 41.3671 5.4818C41.3605 5.50573 41.3448 5.55898 41.3129 5.62499C41.2869 5.67868 41.213 5.8208 41.0555 5.94913L39.792 4.3988C39.6266 4.53362 39.5452 4.68632 39.5122 4.75449C39.4733 4.83498 39.451 4.90659 39.4384 4.95256C39.4131 5.04468 39.4009 5.13071 39.3941 5.18976C39.3798 5.31373 39.3749 5.45251 39.3742 5.585C39.3728 5.85689 39.3892 6.19795 39.4215 6.54945L41.4131 6.36689ZM41.0555 5.94913C40.7659 6.18521 40.4577 6.17239 40.3856 6.16825C40.2794 6.16216 40.2031 6.13923 40.18 6.13206C40.1275 6.1158 40.1046 6.10196 40.13 6.11474C40.1702 6.135 40.2528 6.18207 40.3803 6.26356C40.6279 6.42187 40.9702 6.66185 41.3423 6.94423L42.5513 5.35102C42.1493 5.04596 41.762 4.77315 41.4575 4.5785C41.309 4.48351 41.1599 4.39407 41.0295 4.32843C40.9696 4.29825 40.8767 4.25411 40.7715 4.22153C40.722 4.20621 40.6237 4.17862 40.5001 4.17153C40.4106 4.16639 40.0896 4.15624 39.792 4.3988L41.0555 5.94913ZM42.526 13.8467C42.5211 13.8199 42.524 13.8235 42.5258 13.8743C42.5273 13.9175 42.5273 13.9757 42.525 14.0458C42.5203 14.1871 42.5069 14.3469 42.4874 14.4837L44.4674 14.7663C44.4981 14.5512 44.517 14.3188 44.5239 14.1122C44.5299 13.9299 44.53 13.6851 44.4927 13.483L42.526 13.8467ZM42.4874 14.4839L42.3961 15.1238L44.3761 15.4061L44.4674 14.7662L42.4874 14.4839ZM44.0509 14.5179L43.5085 14.0352L42.1789 15.5293L42.7214 16.012L44.0509 14.5179ZM43.5087 14.0355C43.2116 13.7709 42.7715 13.3768 42.5322 13.1608L41.1921 14.6455C41.4357 14.8654 41.8794 15.2626 42.1787 15.5291L43.5087 14.0355ZM42.5319 13.1605C42.3899 13.0325 42.1539 12.7085 41.9334 12.2684C41.7135 11.8296 41.5922 11.4415 41.5727 11.2419L39.5822 11.4366C39.6364 11.9913 39.88 12.635 40.1454 13.1645C40.4101 13.6927 40.7796 14.2735 41.1925 14.6458L42.5319 13.1605ZM41.5726 11.2417C41.5649 11.1624 41.5618 11.1274 41.5608 11.106C41.5589 11.065 41.5689 11.1497 41.5378 11.2725C41.5201 11.3423 41.4759 11.4799 41.3612 11.6212C41.2319 11.7803 41.049 11.8989 40.8373 11.9475C40.6476 11.9912 40.4938 11.9653 40.4145 11.9456C40.3333 11.9254 40.279 11.899 40.2607 11.8897C40.2282 11.8732 40.2763 11.8967 40.4982 12.0832C40.6919 12.246 40.9553 12.4782 41.3241 12.8033L42.6468 11.3032C42.2858 10.9848 42.0013 10.734 41.7853 10.5524C41.5976 10.3946 41.3744 10.212 41.1652 10.1059C41.0913 10.0685 40.78 9.90855 40.3893 9.99837C39.8433 10.1239 39.6509 10.5764 39.599 10.7817C39.5525 10.965 39.56 11.1339 39.5629 11.1978C39.5667 11.2814 39.5758 11.3723 39.5822 11.4368L41.5726 11.2417ZM41.3241 12.8033C41.7284 13.1598 42.0779 13.4954 42.3236 13.7553C42.448 13.8868 42.5338 13.9863 42.5842 14.0516C42.61 14.0849 42.6157 14.0953 42.6105 14.0867C42.6076 14.0819 42.5963 14.0626 42.5824 14.0315C42.5705 14.0047 42.5432 13.9394 42.526 13.8468L44.4927 13.4829C44.4547 13.278 44.3636 13.1213 44.3267 13.0597C44.2763 12.9754 44.2191 12.8962 44.1662 12.8278C44.0593 12.6896 43.924 12.5368 43.7768 12.3812C43.4795 12.0667 43.0841 11.6887 42.6468 11.3031L41.3241 12.8033ZM41.4161 18.1407C41.7133 18.4111 41.922 18.6024 42.0749 18.7518C42.2329 18.9061 42.2895 18.9761 42.308 19.0029C42.3099 19.0056 42.2807 18.9584 42.2701 18.8892C42.2656 18.8602 42.2719 18.8591 42.26 19.0126L44.2541 19.1672C44.2641 19.0372 44.2825 18.817 44.2468 18.5853C44.205 18.3135 44.1015 18.0801 43.9529 17.8652C43.72 17.5284 43.302 17.1526 42.7621 16.6614L41.4161 18.1407ZM42.26 19.0129C42.2539 19.0922 42.2481 19.1278 42.2462 19.1373C42.2419 19.1587 42.2536 19.0758 42.3231 18.9649C42.4107 18.8249 42.5962 18.6377 42.8928 18.5818C43.1417 18.535 43.3173 18.6121 43.3492 18.6267C43.3983 18.6489 43.3489 18.634 43.1339 18.4358C42.9455 18.2621 42.6947 18.0103 42.354 17.6582L40.9166 19.0488C41.2583 19.402 41.5439 19.6903 41.7783 19.9064C41.9861 20.0978 42.2458 20.3221 42.5223 20.4477C42.668 20.5138 42.937 20.6087 43.2628 20.5473C43.6364 20.477 43.8824 20.2431 44.0182 20.0262C44.1359 19.8383 44.1834 19.6481 44.2065 19.5337C44.2321 19.4073 44.2454 19.2787 44.2541 19.1669L42.26 19.0129ZM42.3541 17.6582C41.876 17.164 41.6777 16.9361 41.5887 16.8008C41.5555 16.7503 41.5645 16.7517 41.5741 16.7877C41.5844 16.8265 41.58 16.8475 41.582 16.8129L39.5854 16.6965C39.5754 16.8687 39.5806 17.0734 39.6412 17.3012C39.7009 17.5262 39.8007 17.7219 39.9177 17.8997C40.129 18.221 40.4686 18.5856 40.9166 19.0488L42.3541 17.6582ZM41.582 16.8127C41.5861 16.7435 41.5965 16.7178 41.5889 16.7401C41.5877 16.7436 41.5633 16.8204 41.4912 16.9167C41.454 16.9665 41.3774 17.0577 41.2498 17.138C41.1125 17.2245 40.9029 17.3048 40.6473 17.28L40.8403 15.2893C40.2814 15.2351 39.9652 15.6177 39.8896 15.7188C39.7832 15.8612 39.7261 16.0061 39.6959 16.0949C39.6302 16.2875 39.5968 16.5004 39.5854 16.6966L41.582 16.8127ZM40.6491 17.2801C40.5374 17.2695 40.4538 17.242 40.4172 17.2289C40.374 17.2136 40.3415 17.1984 40.3235 17.1896C40.2882 17.1723 40.2659 17.1582 40.2631 17.1564C40.2557 17.1518 40.264 17.1567 40.294 17.179C40.3508 17.2212 40.4386 17.2908 40.5548 17.3873C40.7843 17.5778 41.0909 17.8448 41.4162 18.1407L42.762 16.6613C42.42 16.3502 42.0902 16.0624 41.8321 15.8482C41.7044 15.7423 41.5856 15.6471 41.4876 15.5742C41.4403 15.539 41.3841 15.4988 41.3271 15.4629C41.2995 15.4456 41.2561 15.4194 41.2036 15.3937C41.1821 15.3831 41.0363 15.3079 40.8385 15.2891L40.6491 17.2801ZM40.7345 22.27C40.9445 22.5276 41.1925 22.7855 41.4275 22.9997C41.6404 23.1937 41.9193 23.4235 42.1862 23.5539L43.0647 21.7572C43.0826 21.7659 43.0607 21.7567 42.9936 21.7059C42.9337 21.6606 42.859 21.5983 42.775 21.5217C42.6055 21.3672 42.4266 21.1804 42.2848 21.0065L40.7345 22.27ZM42.1867 23.5542C42.2291 23.5749 42.2541 23.5882 42.2689 23.5967C42.2836 23.6051 42.2783 23.6032 42.2626 23.5911C42.2457 23.5779 42.2146 23.5513 42.1804 23.5093C42.1448 23.4657 42.1141 23.4156 42.091 23.362C42.0468 23.2595 42.0508 23.1913 42.0513 23.2226C42.0515 23.2358 42.051 23.2618 42.0479 23.3065C42.0448 23.3509 42.0397 23.406 42.032 23.4766L44.0203 23.6928C44.0376 23.5335 44.0535 23.3592 44.0511 23.1937C44.0486 23.0251 44.0275 22.8018 43.9274 22.5699C43.7102 22.0662 43.2618 21.8534 43.0642 21.757L42.1867 23.5542ZM42.032 23.4766C42.0164 23.6204 41.9921 23.7225 41.9786 23.7642C41.9693 23.7928 41.9784 23.7528 42.0213 23.6848C42.0415 23.6526 42.0997 23.5646 42.2085 23.4771C42.3193 23.3879 42.5605 23.2403 42.8978 23.2718L42.7117 25.2632C43.069 25.2966 43.331 25.141 43.4627 25.035C43.5924 24.9306 43.6719 24.8168 43.7134 24.7509C43.7987 24.6155 43.8503 24.4761 43.8811 24.381C43.9479 24.1752 43.9943 23.9321 44.0203 23.6928L42.032 23.4766ZM42.8995 23.272C43.1111 23.2921 43.2457 23.3793 43.251 23.3825C43.2818 23.401 43.2917 23.411 43.2758 23.3979C43.2458 23.373 43.1876 23.3189 43.1008 23.2279C42.9312 23.0501 42.7141 22.7961 42.4924 22.516C42.2716 22.2371 42.0597 21.9491 41.8987 21.7076C41.8178 21.5864 41.7559 21.486 41.7138 21.4102C41.6623 21.3177 41.6691 21.3128 41.6839 21.3663L39.757 21.9021C39.8083 22.0863 39.8984 22.2609 39.966 22.3825C40.043 22.5208 40.136 22.6692 40.2347 22.8172C40.4327 23.1141 40.6783 23.4466 40.9241 23.7572C41.169 24.0666 41.4275 24.3712 41.6533 24.608C41.7641 24.7243 41.8834 24.8415 41.9998 24.9379C42.057 24.9853 42.1323 25.0434 42.2192 25.0958C42.2806 25.1328 42.4622 25.2394 42.7101 25.263L42.8995 23.272ZM41.684 21.3665C41.6321 21.1798 41.6487 21.1593 41.6427 21.2341C41.6399 21.2697 41.624 21.4477 41.4808 21.6375C41.2979 21.88 41.0186 21.9973 40.7597 21.9959C40.5586 21.9948 40.4305 21.9242 40.4118 21.914C40.3799 21.8966 40.378 21.8904 40.4091 21.917C40.4706 21.9696 40.5792 22.0795 40.7345 22.27L42.2848 21.0065C42.0918 20.7696 41.898 20.5587 41.7092 20.3972C41.6151 20.3167 41.5011 20.2301 41.3709 20.159C41.2539 20.095 41.0413 19.9974 40.7703 19.9959C40.4415 19.9942 40.1068 20.1378 39.884 20.4333C39.7009 20.6761 39.6603 20.9338 39.649 21.0757C39.6262 21.3633 39.6904 21.6622 39.757 21.9019L41.684 21.3665ZM40.9591 27.2477C41.2704 27.5948 41.4729 27.8503 41.5908 28.0279C41.6498 28.1166 41.6728 28.1639 41.6783 28.1767C41.6889 28.2015 41.6456 28.1175 41.6516 27.9661L43.65 28.0452C43.6607 27.7746 43.5824 27.5432 43.5176 27.3913C43.4476 27.2273 43.3547 27.0686 43.2567 26.9211C43.0606 26.626 42.7848 26.2879 42.4479 25.9123L40.9591 27.2477ZM41.8652 26.6435C41.6492 26.4941 41.5169 26.4011 41.4257 26.3296C41.3307 26.2551 41.3457 26.253 41.3799 26.3026C41.4015 26.334 41.4241 26.3758 41.4413 26.4252C41.4578 26.4731 41.4631 26.5102 41.4647 26.5267C41.466 26.5398 41.4646 26.5367 41.4657 26.5037C41.4669 26.47 41.4698 26.4254 41.4753 26.3539L39.4812 26.2003C39.4636 26.4287 39.3963 26.9483 39.7325 27.4366C39.8718 27.6391 40.0472 27.7902 40.1913 27.9032C40.3391 28.0191 40.5243 28.1479 40.7278 28.2886L41.8652 26.6435ZM41.4753 26.3546C41.4847 26.2332 41.502 26.1241 41.5178 26.0548C41.5261 26.018 41.5294 26.0131 41.5228 26.0306C41.5196 26.039 41.5072 26.0715 41.4822 26.1161C41.4692 26.1391 41.4482 26.1738 41.4177 26.214C41.3884 26.2525 41.3387 26.3116 41.2647 26.3719L40.0012 24.8216C39.8513 24.9437 39.7703 25.0798 39.7381 25.1371C39.6978 25.209 39.6699 25.276 39.6514 25.325C39.6141 25.4239 39.5872 25.525 39.5675 25.6115C39.5272 25.7888 39.4971 25.9955 39.4813 26.1996L41.4753 26.3546ZM41.2647 26.3719C40.9825 26.6019 40.6796 26.6014 40.5485 26.5882C40.4124 26.5744 40.3149 26.5347 40.2793 26.5194C40.235 26.5003 40.2049 26.4827 40.1931 26.4757C40.1859 26.4713 40.1807 26.468 40.1777 26.466C40.1747 26.464 40.1731 26.4628 40.173 26.4628C40.1729 26.4627 40.1738 26.4634 40.176 26.465C40.1781 26.4666 40.181 26.4688 40.1849 26.4718C40.1927 26.478 40.2031 26.4863 40.2162 26.4973C40.2425 26.5194 40.2758 26.5486 40.3159 26.5854C40.4798 26.7359 40.7094 26.9694 40.959 27.2477L42.4479 25.9123C42.1687 25.601 41.8931 25.3184 41.6688 25.1125C41.5609 25.0133 41.4423 24.911 41.3293 24.8309C41.279 24.7953 41.1859 24.7322 41.0695 24.6821C41.014 24.6582 40.8995 24.6134 40.7495 24.5983C40.6046 24.5837 40.2909 24.5855 40.0012 24.8216L41.2647 26.3719ZM41.6495 28.0237C41.647 28.0998 41.6462 28.0709 41.6529 28.0287C41.6573 28.0013 41.6711 27.9239 41.7134 27.8279C41.7582 27.7262 41.8477 27.5757 42.0172 27.4518L43.1975 29.0664C43.5585 28.8025 43.616 28.4183 43.6276 28.3458C43.6454 28.235 43.6475 28.1181 43.6484 28.0901L41.6495 28.0237ZM42.0172 27.4518C42.2169 27.3058 42.4281 27.2684 42.5793 27.2701C42.7141 27.2715 42.8097 27.303 42.8411 27.314C42.8991 27.3344 42.9106 27.3484 42.8329 27.301C42.6918 27.215 42.4597 27.0549 42.0433 26.7667L40.905 28.4112C41.2934 28.68 41.5878 28.8843 41.792 29.0088C41.887 29.0667 42.0259 29.1474 42.1781 29.2009C42.28 29.2367 42.7494 29.394 43.1976 29.0664L42.0172 27.4518ZM40.7275 28.2884L40.9051 28.4113L42.0431 26.7666L41.8655 26.6437L40.7275 28.2884ZM43.6483 28.0927L43.6502 28.0414L41.6515 27.9699L41.6496 28.0212L43.6483 28.0927ZM19.2016 26.3503C16.9241 29.3346 13.0902 32.2279 9.31651 34.6092C5.56493 36.9765 1.96914 38.7787 0.250257 39.6018L1.11406 41.4056C2.87033 40.5646 6.5419 38.7249 10.3838 36.3006C14.2036 33.8902 18.2894 30.8423 20.7915 27.5636L19.2016 26.3503ZM1.16313 41.6681C1.14121 41.6781 1.12194 41.6784 1.10134 41.6708C1.07929 41.6628 1.05575 41.6451 1.0394 41.6123L-0.750308 42.505C-0.253486 43.5011 0.944138 43.9654 1.99184 43.4884L1.16313 41.6681ZM0.250257 39.6018C-0.829619 40.1189 -1.28972 41.4237 -0.750308 42.505L1.0394 41.6123C1.00361 41.5406 1.0317 41.4451 1.11406 41.4056L0.250257 39.6018Z" fill="black" mask="url(#path-1-inside-1_95_229)"/>
</g>
</svg>
