<svg width="43" height="43" viewBox="0 0 43 43" fill="none" xmlns="http://www.w3.org/2000/svg">
<path opacity="0.7" fill-rule="evenodd" clip-rule="evenodd" d="M32.5689 10.5165C32.6817 11.0389 32.6152 11.161 31.4624 12.5481C29.9711 14.3421 28.2738 15.6522 24.0958 18.234C22.4889 19.2268 21.165 20.1142 21.1536 20.2062C21.1421 20.2981 21.3302 20.5342 21.5714 20.7308C22.412 21.4159 25.3923 24.8192 27.0239 26.9572C31.9359 33.3935 39.5474 39.1499 41.5777 40.6323C41.9007 40.8681 42.09 41.239 42.0904 41.6389C42.0912 42.633 40.991 43.1996 40.2049 42.5912C36.9898 40.1026 30.1853 34.4612 23.8836 26.8082C22.6766 25.3425 19.6404 22.0305 19.099 21.5893C19.0399 21.5412 18.4695 21.8576 17.8316 22.2924C13.6634 25.1344 4.96772 30.8923 4.21044 31.312C3.60847 31.6456 2.96958 31.4453 2.56674 30.7964C2.39986 30.5279 2.12149 29.0497 1.94784 27.5114C1.47854 23.3544 0.821827 9.07892 0.961759 6.07668C1.22041 0.526168 1.2469 0.371279 1.97424 0.145599C2.26354 0.0559613 3.4897 0.236095 4.88579 0.57341C6.50166 0.963881 7.46588 1.09289 7.80809 0.964236C8.37567 0.750833 8.75955 0.857521 17.4963 3.65652C28.2881 7.11387 32.2209 8.90364 32.5689 10.5165ZM9.71454 3.74113C11.8543 4.19896 23.8652 8.22217 27.1072 9.56703C29.7161 10.6492 29.8942 10.7802 29.4658 11.3008C28.7109 12.2178 26.1031 14.1067 21.8292 16.8317C19.3212 18.4307 15.6491 20.8429 13.6688 22.1923C8.96322 25.3985 9.0301 25.356 8.88397 25.2369C8.81485 25.1806 8.77605 23.6674 8.79813 21.8744C8.81994 20.0814 8.83421 17.2644 8.82971 15.6144C8.81735 10.9977 8.88108 8.43023 9.07017 5.93021C9.24215 3.65665 9.24684 3.64108 9.71454 3.74113ZM3.47376 3.4754C3.54356 2.76171 3.54541 2.76035 4.25584 2.91336C5.03486 3.08108 5.10811 3.14844 4.76406 3.38119C4.60942 3.48576 4.29493 3.71411 4.06486 3.8889C3.54838 4.2814 3.40466 4.18079 3.47376 3.4754ZM3.50896 7.41345C3.59536 7.30475 4.29954 6.73525 5.07367 6.14781C5.8478 5.56037 6.53302 5.12222 6.59675 5.17416C6.66034 5.22598 6.66322 5.80374 6.60322 6.45836C6.50746 7.50289 6.43521 7.68178 6.01275 7.92319C5.74822 8.07444 5.10169 8.64231 4.57615 9.185C4.05062 9.72768 3.57067 10.131 3.50971 10.0814C3.33486 9.93885 3.33417 7.63329 3.50896 7.41345ZM3.54312 14.6252C3.49288 14.2732 3.4786 13.8411 3.51116 13.665C3.54523 13.4809 4.19347 12.7954 5.03506 12.0534C6.49458 10.7665 6.49949 10.764 6.4431 11.3394C6.36935 12.0937 5.71318 13.403 5.15832 13.9033C4.91686 14.1213 4.47502 14.5169 4.1768 14.7825L3.63437 15.2652L3.54312 14.6252ZM3.76346 19.0901C3.71949 18.5231 3.75569 18.471 4.9314 17.4012C5.59878 16.7941 6.20406 16.2917 6.27668 16.2848C6.34915 16.2778 6.42134 16.4894 6.43678 16.7549C6.46091 17.1687 6.31129 17.3963 5.38519 18.3537C4.02059 19.7642 3.82249 19.8542 3.76346 19.0901ZM4.39507 22.6558C4.65694 22.5277 5.15915 22.07 5.51083 21.6384C6.2075 20.7836 6.53692 20.7817 6.30001 21.6344C6.15459 22.1574 4.5062 24.2401 4.21574 24.2677C4.13561 24.2752 4.03602 23.968 3.99437 23.5849C3.92726 22.9677 3.97302 22.8618 4.39507 22.6558ZM4.36969 28.0058C4.36026 27.7676 4.66885 27.3028 5.31703 26.5802C5.84584 25.9906 6.32764 25.5481 6.38758 25.5969C6.44738 25.6456 6.51695 25.9519 6.54224 26.2773C6.58654 26.8522 6.56298 26.8861 5.72399 27.4662L5.54637 27.5891C4.74157 28.1462 4.49338 28.318 4.41315 28.2593C4.37737 28.2331 4.37498 28.1612 4.37152 28.0571L4.36969 28.0058Z" fill="white"/>
</svg>
